<svg width="122" height="12" viewBox="0 0 122 12" fill="none" xmlns="http://www.w3.org/2000/svg">
<g id="Logo">
<path id="Vector" d="M6.621 11.75H0.782837V0.172852H6.35133C7.16155 0.172852 7.84233 0.273501 8.39367 0.474801C8.945 0.676101 9.3609 0.990325 9.64256 1.41625C9.92302 1.84217 10.0645 2.3896 10.0645 3.05733C10.0645 3.72505 9.87628 4.31054 9.49873 4.7426C9.12119 5.17466 8.55667 5.4361 7.80278 5.52939V5.70245C8.71368 5.77119 9.39446 6.07191 9.84512 6.60094C10.2946 7.13119 10.5199 7.78787 10.5199 8.57098C10.5199 9.21661 10.3761 9.77755 10.0896 10.2562C9.80317 10.7349 9.36929 11.1032 8.79039 11.3622C8.21029 11.6212 7.48756 11.7513 6.6222 11.7513L6.621 11.75ZM3.31419 2.50498V4.75119H6.18233C6.65456 4.75119 6.99735 4.67632 7.21189 4.52657C7.42523 4.37682 7.5319 4.07733 7.5319 3.62809C7.5319 3.15552 7.42164 2.84989 7.2023 2.71242C6.98297 2.57495 6.64257 2.50498 6.18113 2.50498H3.31299H3.31419ZM3.31419 6.85993V9.41791H6.5371C6.99855 9.41791 7.35212 9.34303 7.60022 9.19328C7.84712 9.04354 7.97177 8.69863 7.97177 8.1561C7.97177 7.61357 7.85072 7.2343 7.60861 7.08455C7.3665 6.9348 7.00933 6.85993 6.5371 6.85993H3.31419V6.85993Z" fill="white"/>
<path id="Vector_2" d="M13.9945 11.75H11.4631V0.172852H13.9945V11.7513V11.75Z" fill="white"/>
<path id="Vector_3" d="M19.8673 11.9231C18.7874 11.9231 17.8765 11.6837 17.1334 11.2062C16.3915 10.7288 15.8258 10.0426 15.4375 9.15029C15.0491 8.25795 14.855 7.19498 14.855 5.96141C14.855 4.72784 15.0743 3.70047 15.513 2.80812C15.9517 1.91578 16.5821 1.22473 17.4031 0.734984C18.2241 0.245237 19.2081 0.000976562 20.3564 0.000976562C21.5046 0.000976562 22.4263 0.182638 23.1909 0.545959C23.9556 0.90928 24.5345 1.41867 24.9288 2.07534C25.322 2.73202 25.5197 3.52127 25.5197 4.44307V4.52899H22.8374V4.46025C22.8374 3.72257 22.6456 3.21318 22.2633 2.93087C21.8809 2.64856 21.2277 2.5074 20.306 2.5074C19.6648 2.5074 19.1422 2.6056 18.7371 2.80076C18.332 2.99715 18.0336 3.34574 17.843 3.84654C17.6512 4.34733 17.5565 5.05311 17.5565 5.96386C17.5565 6.87462 17.6572 7.60004 17.8598 8.10697C18.0623 8.6139 18.3823 8.96495 18.821 9.16134C19.2597 9.35773 19.8338 9.4547 20.5421 9.4547C21.1378 9.4547 21.6244 9.40928 22.002 9.31599C22.3783 9.22394 22.66 9.05087 22.8458 8.79802C23.0315 8.54516 23.1238 8.18184 23.1238 7.70928V6.93109H25.5533V7.19007L23.3935 9.98986H23.107C22.9944 10.2894 22.8122 10.5888 22.5581 10.8883C22.3052 11.1878 21.9588 11.4358 21.5201 11.6309C21.0815 11.8261 20.5301 11.9243 19.8661 11.9243L19.8673 11.9231ZM25.5533 7.75838H20.0351V5.59809H25.5533V7.75838ZM25.5533 11.75H23.2077V8.62249L23.1238 8.41506V5.90986H25.5533V11.7512V11.75Z" fill="white"/>
<path id="Vector_4" d="M35.5421 11.75H29.704V0.172852H35.2725C36.0827 0.172852 36.7635 0.273501 37.3136 0.474801C37.8649 0.676101 38.2808 0.990325 38.5625 1.41625C38.843 1.84217 38.9844 2.3896 38.9844 3.05733C38.9844 3.72505 38.7962 4.31054 38.4187 4.7426C38.0411 5.17466 37.4766 5.4361 36.7227 5.52939V5.70245C37.6336 5.77119 38.3144 6.07191 38.7639 6.60094C39.2133 7.13119 39.4386 7.78787 39.4386 8.57098C39.4386 9.21661 39.2948 9.77755 39.0084 10.2562C38.7219 10.7349 38.288 11.1032 37.7091 11.3622C37.1302 11.6212 36.4075 11.7513 35.5409 11.7513L35.5421 11.75ZM32.2353 2.50498V4.75119H35.1035C35.5757 4.75119 35.9185 4.67632 36.133 4.52657C36.3464 4.37682 36.4542 4.07733 36.4542 3.62809C36.4542 3.15552 36.344 2.84989 36.1246 2.71242C35.9053 2.57372 35.5649 2.50498 35.1035 2.50498H32.2353ZM32.2353 6.85993V9.41791H35.4582C35.9197 9.41791 36.2733 9.34303 36.5214 9.19328C36.7683 9.04354 36.8929 8.69863 36.8929 8.1561C36.8929 7.61357 36.7719 7.2343 36.5298 7.08455C36.2876 6.9348 35.9305 6.85993 35.4582 6.85993H32.2353Z" fill="white"/>
<path id="Vector_5" d="M45.4469 11.9233C44.3107 11.9233 43.3399 11.679 42.5357 11.1893C41.7314 10.6996 41.1094 10.0085 40.6707 9.11616C40.232 8.22381 40.0127 7.1719 40.0127 5.96287C40.0127 4.75385 40.232 3.70194 40.6707 2.80959C41.1094 1.91724 41.7314 1.2262 42.5357 0.736449C43.3399 0.246702 44.3095 0.00244141 45.4469 0.00244141C46.5844 0.00244141 47.5396 0.247929 48.3499 0.736449C49.1601 1.2262 49.7809 1.91724 50.2148 2.80959C50.6475 3.70194 50.8644 4.75385 50.8644 5.96287C50.8644 7.1719 50.6475 8.22381 50.2148 9.11616C49.7821 10.0085 49.1601 10.7008 48.3499 11.1893C47.5396 11.679 46.5724 11.9233 45.4469 11.9233ZM45.4469 9.41811C46.0882 9.41811 46.6083 9.31746 47.0075 9.11616C47.4066 8.91486 47.699 8.56258 47.8848 8.06179C48.0706 7.561 48.1629 6.86013 48.1629 5.96165C48.1629 5.06316 48.0706 4.3488 47.8848 3.85291C47.699 3.35825 47.4066 3.00966 47.0075 2.80713C46.6083 2.60583 46.0882 2.50518 45.4469 2.50518C44.8057 2.50518 44.2688 2.60583 43.8696 2.80713C43.4705 3.00843 43.1781 3.35703 42.9923 3.85291C42.8065 4.3488 42.7142 5.05089 42.7142 5.96165C42.7142 6.8724 42.8065 7.55977 42.9923 8.06179C43.1781 8.56258 43.4705 8.91486 43.8696 9.11616C44.2688 9.31746 44.7949 9.41811 45.4469 9.41811Z" fill="white"/>
<path id="Vector_6" d="M57.0395 11.9233C55.9032 11.9233 54.9324 11.679 54.1282 11.1893C53.324 10.6996 52.7019 10.0085 52.2632 9.11616C51.8246 8.22381 51.6052 7.1719 51.6052 5.96287C51.6052 4.75385 51.8246 3.70194 52.2632 2.80959C52.7019 1.91724 53.324 1.2262 54.1282 0.736449C54.9324 0.246702 55.9021 0.00244141 57.0395 0.00244141C58.1769 0.00244141 59.1322 0.247929 59.9424 0.736449C60.7526 1.2262 61.3735 1.91724 61.8073 2.80959C62.24 3.70194 62.457 4.75385 62.457 5.96287C62.457 7.1719 62.24 8.22381 61.8073 9.11616C61.3747 10.0085 60.7526 10.7008 59.9424 11.1893C59.1322 11.679 58.1649 11.9233 57.0395 11.9233ZM57.0395 9.41811C57.6807 9.41811 58.2009 9.31746 58.6 9.11616C58.9991 8.91486 59.2916 8.56258 59.4773 8.06179C59.6631 7.561 59.7554 6.86013 59.7554 5.96165C59.7554 5.06316 59.6631 4.3488 59.4773 3.85291C59.2916 3.35825 58.9991 3.00966 58.6 2.80713C58.2009 2.60583 57.6807 2.50518 57.0395 2.50518C56.3983 2.50518 55.8613 2.60583 55.4622 2.80713C55.0631 3.00843 54.7706 3.35703 54.5848 3.85291C54.3991 4.3488 54.3068 5.05089 54.3068 5.96165C54.3068 6.8724 54.3991 7.55977 54.5848 8.06179C54.7706 8.56258 55.0631 8.91486 55.4622 9.11616C55.8613 9.31746 56.3875 9.41811 57.0395 9.41811Z" fill="white"/>
<path id="Vector_7" d="M65.8644 11.75H63.333V0.172852H65.8644V11.7513V11.75ZM73.474 11.75H70.5711L68.0397 7.29199H64.5639V4.78679H68.0062L70.655 0.172852H73.5231L70.1144 5.90989L73.4728 11.7513L73.474 11.75Z" fill="white"/>
<path id="Vector_8" d="M78.2671 11.9231C77.1644 11.9231 76.2535 11.7733 75.5332 11.4738C74.8129 11.1743 74.2783 10.7312 73.9307 10.1433C73.5819 9.55535 73.4082 8.83607 73.4082 7.983V7.75838H75.8892V7.93145C75.8892 8.35737 75.9563 8.68878 76.0917 8.92568C76.2272 9.16257 76.4717 9.3295 76.8252 9.42647C77.18 9.52467 77.7002 9.57376 78.3858 9.57376C79.0713 9.57376 79.5843 9.49398 79.8204 9.33196C80.0565 9.17116 80.1752 8.89376 80.1752 8.50221C80.1752 8.23708 80.138 8.02474 80.0649 7.86272C79.9918 7.70192 79.8312 7.5669 79.5843 7.45643C79.3362 7.34719 78.9491 7.25145 78.4205 7.17167L76.4297 6.80835C75.7094 6.68192 75.1221 6.4708 74.6666 6.17745C74.2112 5.88409 73.8792 5.51463 73.6706 5.07152C73.4621 4.62842 73.359 4.10676 73.359 3.50777C73.359 2.90878 73.5076 2.34416 73.8061 1.81391C74.1045 1.28365 74.5875 0.849142 75.2575 0.509142C75.9263 0.169142 76.7953 -0.000244141 77.8644 -0.000244141C78.9335 -0.000244141 79.8192 0.172825 80.488 0.517734C81.1568 0.863872 81.6494 1.33889 81.9646 1.94279C82.2799 2.54791 82.4369 3.23651 82.4369 4.00734V4.14604H79.9391V3.95578C79.9391 3.55318 79.8768 3.23651 79.7533 3.00575C79.6299 2.77499 79.4105 2.60806 79.0953 2.50495C78.7801 2.40185 78.3414 2.34907 77.7793 2.34907C77.059 2.34907 76.5616 2.43254 76.2859 2.59947C76.0102 2.7664 75.8724 3.03398 75.8724 3.40344C75.8724 3.64524 75.9167 3.83795 76.0078 3.98279C76.0977 4.1264 76.2583 4.23932 76.4884 4.32033C76.7186 4.40134 77.0542 4.48726 77.4928 4.57932L79.5004 4.97701C80.2879 5.12676 80.9147 5.36611 81.3821 5.69384C81.8484 6.02279 82.184 6.4168 82.3865 6.87708C82.5891 7.3386 82.6898 7.85044 82.6898 8.41506C82.6898 9.02633 82.5435 9.59831 82.2511 10.1347C81.9586 10.6699 81.4912 11.1019 80.8512 11.4309C80.21 11.7598 79.3494 11.9231 78.2695 11.9231H78.2671Z" fill="white"/>
<path id="Vector_9" d="M85.8934 11.75H83.3621V0.172852H85.8934V11.7513V11.75ZM92.1031 7.08455H84.0716V4.76837H92.1031V7.08455ZM93.352 11.75H90.8207V0.172852H93.352V11.7513V11.75Z" fill="white"/>
<path id="Vector_10" d="M97.1826 11.75H94.6512V0.172858H97.1826V11.7513V11.75ZM103.274 2.50499H95.3596V0.171631H103.274V2.50499ZM103.021 7.08455H95.3596V4.76838H103.021V7.08455ZM103.274 11.75H95.3596V9.41668H103.274V11.75Z" fill="white"/>
<path id="Vector_11" d="M106.8 11.75H104.269V0.172852H106.8V11.7513V11.75ZM112.638 11.75H104.977V9.41668H112.638V11.75Z" fill="white"/>
<path id="Vector_12" d="M115.782 11.75H113.25V0.172858H115.782V11.7513V11.75ZM121.739 2.50499H113.96V0.171631H121.739V2.50499ZM121.486 7.46506H113.96V5.14889H121.486V7.46506Z" fill="white"/>
</g>
</svg>
