<svg width="34" height="35" viewBox="0 0 34 35" fill="none" xmlns="http://www.w3.org/2000/svg">
<g id="Logo">
<path id="Vector" d="M15.6136 0.735894V13.948C15.6136 15.378 14.4822 16.5379 13.0846 16.5379H0C0.665199 8.02319 7.29321 1.23055 15.6052 0.548096C15.6112 0.610695 15.6124 0.672067 15.6124 0.735894H15.6136Z" fill="#F4CE47"/>
<path id="Vector_2" d="M33.9815 16.5382H20.8969C19.5006 16.5382 18.3679 15.3782 18.3679 13.9483V0.736138C18.3679 0.672311 18.3703 0.609712 18.3751 0.54834C26.6871 1.23079 33.3163 8.02343 33.9803 16.5382H33.9815Z" fill="#F4CE47"/>
<path id="Vector_3" d="M15.6136 21.9476V35.1609C15.6136 35.2235 15.6112 35.2849 15.6064 35.3475C7.29321 34.6638 0.665199 27.8736 0 19.3589H13.0846C14.4822 19.3589 15.6136 20.5176 15.6136 21.9476Z" fill="#F4CE47"/>
<path id="Vector_4" d="M33.9814 19.3586C33.3162 27.8734 26.6882 34.6636 18.3762 35.346C18.3702 35.2834 18.369 35.222 18.369 35.1594V21.9461C18.369 20.5161 19.5017 19.3574 20.898 19.3574H33.9826L33.9814 19.3586Z" fill="#F4CE47"/>
</g>
</svg>
